<svg height="55" viewBox="0 0 31 55" width="31" xmlns="http://www.w3.org/2000/svg"><g fill="none" fill-rule="evenodd" transform=""><path d="m0 0h31v55h-31z"/><rect fill="#99a2ad" height="18.5" rx="9.25" stroke="#000" stroke-opacity=".071983" stroke-width=".5" width="18.5" x="6.25" y="18.25"/><path d="m15.5 26.4658563 2.8141831-2.8141831c.2855709-.2855709.7485728-.2855709 1.0341437 0s.2855709.7485728 0 1.0341437l-2.8141831 2.8141831 2.8141831 2.8141831c.2855709.2855709.2855709.7485728 0 1.0341437s-.7485728.2855709-1.0341437 0l-2.8141831-2.8141831-2.8141831 2.8141831c-.2855709.2855709-.7485728.2855709-1.0341437 0s-.2855709-.7485728 0-1.0341437l2.8141831-2.8141831-2.8141831-2.8141831c-.2855709-.2855709-.2855709-.7485728 0-1.0341437s.7485728-.2855709 1.0341437 0z" fill="#fff" fill-rule="nonzero"/></g></svg>