<svg xmlns="http://www.w3.org/2000/svg" width="72" height="72" viewBox="0 0 72 72">
    <g fill="none" fill-rule="evenodd" opacity=".7">
        <rect width="72" height="72" opacity=".4"/>
        <path fill="#93A3BB" d="M12,17 L12,54.9931486 L12,54.9931486 C12,59.9637113 16.0294373,63.9931486 21,63.9931486 L50.9999368,63.9931486 L50.9999368,63.9997791 C55.9704995,63.9997791 59.9999368,59.9703419 59.9999368,54.9997791 C59.9999368,54.9975682 59.999936,54.9953572 59.9999343,54.9931462 L59.9734761,28.08989 L59.9734761,28.08989 C59.9723372,26.5445577 59.3750016,25.0592513 58.3059138,23.9434087 L44.8021654,9.84909672 L44.8021654,9.84909672 C43.6704695,8.66790803 42.1055601,8 40.4697293,8 L21,8 L21,8 C16.0294373,8 12,12.0294373 12,17 Z M42.5425342,13.2033578 L52.6118192,23.4697452 L52.6118192,23.4697452 C52.9598681,23.8246071 52.9543451,24.3944288 52.5994833,24.7424777 C52.4312295,24.9075012 52.2049586,24.9999436 51.969285,24.9999436 L42.5,24.9999436 L42.5,24.9999436 C41.6715729,24.9999436 41,24.3283707 41,23.4999436 L41,13.8335561 L41,13.8335561 C41,13.3364998 41.4029437,12.9335561 41.9,12.9335561 C42.141719,12.9335561 42.3732777,13.0307882 42.5425342,13.2033578 Z"/>
    </g>
</svg>