<svg xmlns="http://www.w3.org/2000/svg" width="6.9943652" height="10.984729" viewBox="0 0 6.9943652 10.984729">
  <path style="fill:#ffc000;fill-opacity:1;stroke-width:0.04661017;fill-rule:evenodd" d="m 1.2114611,10.950364 c -0.39982136,-0.08098 -0.74739036,-0.319121 -0.96717636,-0.662677 -0.254939,-0.3985082 -0.253359,-0.3660822 -0.239287,-4.9105451 0.01464,-4.72795075 -0.01015,-4.41488935 0.384272,-4.85357665 0.229248,-0.2549788 0.510443,-0.4104692 0.86334206,-0.477395 0.3269074,-0.061997 4.1515913,-0.061366 4.4790678,7.383e-4 0.6101113,0.1157053 1.0291824,0.5062688 1.1849643,1.10435735 0.1036284,0.3978549 0.1036284,8.2986199 0,8.6964749 C 6.791449,10.328398 6.5376986,10.629921 6.0770633,10.845386 l -0.279661,0.130813 -2.190678,0.0078 c -1.2048729,0.0043 -2.2827413,-0.01085 -2.3952632,-0.03364 z M 6.0071481,5.0100966 V 2.0037407 H 3.4901989 0.97324974 v 3.0063559 3.006356 H 3.4901989 6.0071481 Z"/>
</svg>