<?xml version="1.0" encoding="UTF-8" standalone="no"?>
<svg
   xmlns:dc="http://purl.org/dc/elements/1.1/"
   xmlns:cc="http://creativecommons.org/ns#"
   xmlns:rdf="http://www.w3.org/1999/02/22-rdf-syntax-ns#"
   xmlns:svg="http://www.w3.org/2000/svg"
   xmlns="http://www.w3.org/2000/svg"
   xmlns:sodipodi="http://sodipodi.sourceforge.net/DTD/sodipodi-0.dtd"
   xmlns:inkscape="http://www.inkscape.org/namespaces/inkscape"
   width="28"
   height="29"
   viewBox="36 0 28 29"
   version="1.1"
   id="svg6"
   sodipodi:docname="pause-ico-mini.svg"
   inkscape:version="0.92.1 r15371">
  <metadata
     id="metadata12">
    <rdf:RDF>
      <cc:Work
         rdf:about="">
        <dc:format>image/svg+xml</dc:format>
        <dc:type
           rdf:resource="http://purl.org/dc/dcmitype/StillImage" />
      </cc:Work>
    </rdf:RDF>
  </metadata>
  <defs
     id="defs10" />
  <sodipodi:namedview
     pagecolor="#ffffff"
     bordercolor="#666666"
     borderopacity="1"
     objecttolerance="10"
     gridtolerance="10"
     guidetolerance="10"
     inkscape:pageopacity="0"
     inkscape:pageshadow="2"
     inkscape:window-width="1366"
     inkscape:window-height="706"
     id="namedview8"
     showgrid="false"
     inkscape:zoom="8.137931"
     inkscape:cx="14"
     inkscape:cy="14.5"
     inkscape:window-x="-5"
     inkscape:window-y="-5"
     inkscape:window-maximized="1"
     inkscape:current-layer="svg6" />
  <g
     fill="none"
     id="g4">
    <path
       d="M46 8.6C46 8.3 46.3 8 46.6 8L48.4 8C48.7 8 49 8.3 49 8.6L49 19.4C49 19.7 48.7 20 48.4 20L46.6 20C46.3 20 46 19.7 46 19.4L46 8.6ZM51 8.6C51 8.3 51.3 8 51.6 8L53.4 8C53.7 8 54 8.3 54 8.6L54 19.4C54 19.7 53.7 20 53.4 20L51.6 20C51.3 20 51 19.7 51 19.4L51 8.6Z"
       fill="#FFF"
       id="path2"
       style="fill:#222222;fill-opacity:1" />
  </g>
</svg>
