<svg xmlns="http://www.w3.org/2000/svg" width="24" height="24" viewBox="0 0 24 24">
  <circle style="fill:#ffc000;fill-rule:evenodd;fill-opacity:1" r="12" cy="12" cx="12"/>
  <path style="fill:#222222;fill-rule:evenodd" d="M 8,7.5955982 C 8,7.2666584 8.2768555,7 8.6070948,7 H 10.392905 C 10.728194,7 11,7.2674758 11,7.5955982 V 16.404402 C 11,16.733342 10.723145,17 10.392905,17 H 8.6070948 C 8.2718056,17 8,16.732524 8,16.404402 Z m 5,0 C 13,7.2666584 13.276856,7 13.607095,7 h 1.78581 C 15.728194,7 16,7.2674758 16,7.5955982 V 16.404402 C 16,16.733342 15.723145,17 15.392905,17 h -1.78581 C 13.271806,17 13,16.732524 13,16.404402 Z"/>
</svg>