<svg xmlns="http://www.w3.org/2000/svg" width="72" height="72" viewBox="0 0 72 72">
    <g fill="none" fill-rule="evenodd">
        <rect width="72" height="72"/>
        <path fill="#ffc000" d="M43,10 C45.0694355,10 46.3955046,11.1023749 47.5840277,12.498735 C47.6450425,12.5704195 48.6471354,13.8165216 49.7382098,15.1632748 C50.8292841,16.5100281 53.0511974,18 55.0909091,18 L56.4545455,18 C63,18 66,22 66,28.6666667 L66,49.3333333 C66,55.2243707 61.1158336,60 55.0909091,60 L36,60 L16.9090909,60 C10.8841664,60 6,55.2243707 6,49.3333333 L6,28.6666667 C6,22 9,18 15.5454545,18 L16.9090909,18 C18.9488026,18 21.1707159,16.5100281 22.2617902,15.1632748 C23.3528646,13.8165216 24.3549575,12.5704195 24.4159723,12.498735 C25.6044954,11.1023749 26.9305645,10 29,10 L43,10 Z M21,37 C21,45.28 27.72,52 36,52 C44.28,52 51,45.28 51,37 C51,28.72 44.28,22 36,22 C27.72,22 21,28.72 21,37 Z M26,37 C26,31.4765625 30.4765625,27 36,27 C41.5234375,27 46,31.4765625 46,37 C46,42.5234375 41.5234375,47 36,47 C30.4765625,47 26,42.5234375 26,37 Z"/>
    </g>
</svg>