<svg xmlns="http://www.w3.org/2000/svg" width="72" height="72"><g fill="none" fill-rule="evenodd" opacity=".7"><path d="M0 0h72v72H0z" opacity=".4"/><path fill="#93A3BB" d="M23.537 8h24.926c4.011 0 5.466.418 6.933 1.202a8.178 8.178 0 0 1 3.402 3.402C59.582 14.071 60 15.526 60 19.537v32.926c0 4.011-.418 5.466-1.202 6.933a8.178 8.178 0 0 1-3.402 3.402C53.929 63.582 52.474 64 48.463 64H23.537c-4.011 0-5.466-.418-6.933-1.202a8.178 8.178 0 0 1-3.402-3.402C12.418 57.929 12 56.474 12 52.463V19.537c0-4.011.418-5.466 1.202-6.933a8.178 8.178 0 0 1 3.402-3.402C18.071 8.418 19.526 8 23.537 8zM23 16a3 3 0 0 0-3 3v2a3 3 0 0 0 3 3h2a3 3 0 0 0 3-3v-2a3 3 0 0 0-3-3h-2zm0 32a3 3 0 0 0-3 3v2a3 3 0 0 0 3 3h2a3 3 0 0 0 3-3v-2a3 3 0 0 0-3-3h-2zm0-16a3 3 0 0 0-3 3v2a3 3 0 0 0 3 3h2a3 3 0 0 0 3-3v-2a3 3 0 0 0-3-3h-2zm24-16a3 3 0 0 0-3 3v2a3 3 0 0 0 3 3h2a3 3 0 0 0 3-3v-2a3 3 0 0 0-3-3h-2zm0 32a3 3 0 0 0-3 3v2a3 3 0 0 0 3 3h2a3 3 0 0 0 3-3v-2a3 3 0 0 0-3-3h-2zm0-16a3 3 0 0 0-3 3v2a3 3 0 0 0 3 3h2a3 3 0 0 0 3-3v-2a3 3 0 0 0-3-3h-2z"/></g></svg>