<?xml version="1.0" encoding="utf-8"?>
<!-- Generator: Adobe Illustrator 21.1.0, SVG Export Plug-In . SVG Version: 6.00 Build 0)  -->
<svg version="1.1" id="Layer_1" xmlns="http://www.w3.org/2000/svg" xmlns:xlink="http://www.w3.org/1999/xlink" x="0px" y="0px"
	 width="14px" height="14px" viewBox="0 0 14 14" enable-background="new 0 0 14 14" xml:space="preserve">
<path fill-rule="evenodd" clip-rule="evenodd" fill="#ffc000" d="M6,10c2.2,0,4-1.8,4-4c0-2.2-1.8-4-4-4C3.8,2,2,3.8,2,6
	C2,8.2,3.8,10,6,10z M10.9,9.5l2.8,2.8c0.4,0.4,0.4,1,0,1.4c-0.4,0.4-1,0.4-1.4,0l-2.8-2.8C8.5,11.6,7.3,12,6,12c-3.3,0-6-2.7-6-6
	c0-3.3,2.7-6,6-6s6,2.7,6,6C12.1,7.3,11.6,8.5,10.9,9.5z"/>
</svg>