<svg version="1.1" xmlns="http://www.w3.org/2000/svg" xmlns:xlink="http://www.w3.org/1999/xlink" x="0px" y="0px" viewBox="0 0 1000 1000" enable-background="new 0 0 1000 1000" xml:space="preserve">
<metadata> Svg Vector Icons : http://www.onlinewebfonts.com/icon </metadata>
<g transform="translate(50.000000,511.000000) scale(0.0900000,-0.0900000)"><path fill="none" stroke="#ffc000" stroke-width="1000" d="M4870,4765.3c-31.9-15.9-73.7-45.8-91.6-65.7c-19.9-21.9-304.7-589.4-635.2-1262.4c-332.5-673-633.2-1266.4-669-1316.2c-81.6-111.5-240.9-223-376.3-264.8c-53.8-15.9-698.9-115.5-1433.7-221c-858.2-123.5-1358-203.1-1403.8-225c-139.4-67.7-203.1-260.8-129.4-400.2C146.9,978,612.8,512,1166.4-27.6c904-882.1,1011.5-995.6,1069.3-1109.1c109.5-225,109.5-236.9-153.3-1758.2c-139.4-810.4-229-1373.9-223-1417.7c19.9-155.3,165.3-268.8,320.6-250.9c57.7,7.9,444,201.1,1286.3,645.1c663.1,348.5,1250.5,649.2,1304.2,669.1c127.4,43.8,330.5,43.8,458,0c55.7-19.9,641.2-320.6,1304.2-669.1c842.3-444,1228.6-637.2,1286.3-645.1c155.3-17.9,300.7,95.6,320.6,250.9c4,43.8-85.6,615.3-223,1417.7c-262.9,1521.3-264.8,1533.2-153.3,1758.2c57.8,115.5,165.3,227,1071.3,1109.1C9388.1,512,9854,980,9870,1009.8c71.7,139.4,10,330.5-131.4,400.2c-47.8,23.9-509.7,99.6-1447.6,233c-1537.2,221-1513.3,217-1696.5,400.2c-83.6,83.6-157.3,221-571.5,1059.3c-744.7,1509.3-788.5,1595-848.3,1636.8C5107,4787.2,4949.7,4801.1,4870,4765.3z"/></g>
</svg>