<svg xmlns="http://www.w3.org/2000/svg" width="24" height="24" viewBox="0 0 24 24"><g fill="none" fill-rule="evenodd"><circle cx="12" cy="12" r="12" fill="#FFFFFF"/><path fill="#222222" d="M8,7.59559822 C8,7.26665841 8.27685547,7 8.60709476,7 L10.3929052,7 C10.7281944,7 11,7.26747584 11,7.59559822 L11,16.4044018 C11,16.7333416 10.7231445,17 10.3929052,17 L8.60709476,17 C8.27180558,17 8,16.7325242 8,16.4044018 L8,7.59559822 Z M13,7.59559822 C13,7.26665841 13.2768555,7 13.6070948,7 L15.3929052,7 C15.7281944,7 16,7.26747584 16,7.59559822 L16,16.4044018 C16,16.7333416 15.7231445,17 15.3929052,17 L13.6070948,17 C13.2718056,17 13,16.7325242 13,16.4044018 L13,7.59559822 Z"/></g></svg>