<svg xmlns="http://www.w3.org/2000/svg" width="16" height="16" viewBox="0 0 16 16"><path fill="#ffc000" d="M6.3 15.9c-1.3 0-2.7-.5-3.7-1.5s-1.5-2.3-1.5-3.7.5-2.7 1.5-3.7l5.5-5.4c.7-.7 1.7-1.1 2.7-1.1 1 0 2 .4 2.7 1.1 1.5 1.5 1.5 3.9 0 5.4l-5.5 5.5c-.8.8-2.2.9-3.1.2l-.1-.1c-.4-.4-.7-.9-.8-1.5s0-1.1.4-1.6l.1-.1 3.7-3.8c.3-.3.8-.3 1.1 0 .3.3.3.8 0 1.1l-3.7 3.8c-.2.2-.2.4-.2.5 0 .2.1.3.2.4l.1.1c.3.3.8.2 1.1-.1l5.5-5.5c.9-.9.9-2.4 0-3.3-.4-.4-1-.7-1.6-.7-.6 0-1.2.2-1.6.7l-5.4 5.4c-.7.7-1.1 1.7-1.1 2.7s.4 2 1.1 2.7c1.4 1.4 3.8 1.4 5.2 0l3.6-3.5c.3-.3.8-.3 1.1 0 .3.3.3.8 0 1.1l-3.6 3.5c-1.1 1-2.4 1.4-3.7 1.4z"/></svg>