<svg width="13" height="13" viewBox="15 14 13 13" xmlns="http://www.w3.org/2000/svg">
    <path d="M18.5004264,23.0014212 L18,23.0014212 C16.5,23.0014212 15,22.2871355 15,20.8942784 L15,20.1071429 C15,18.7142857 16.5,18 18,18 L22,18 C23,18 23.4369954,17.64 24.8971569,16.6028571 C25.9010179,15.8485714 26.996139,15 26.996139,15 L28,15 L28,26.0014212 L26.996139,26.0014212 C26.996139,26.0014212 25.9010179,25.1528498 24.8971569,24.3985641 C23.4369954,23.3614212 23,23.0014212 22,23.0014212 L21.0004572,23.0014212 C21.0205846,23.0639764 21.700616,25.1766941 22,26 C22,27.2071429 21.9246753,28 20,28 L18.5004264,23.0014212 Z" fill="#ffc000"/>
</svg>